<svg xmlns="http://www.w3.org/2000/svg" width="61.751" height="37.61" viewBox="0 0 61.751 37.61">
  <g id="group_267" data-name="group 267" transform="translate(-881.912 -416.837)">
    <path id="path_274" data-name="path 274" d="M1014.507,416.837a3.311,3.311,0,1,0,3.31,3.311A3.314,3.314,0,0,0,1014.507,416.837Zm1.475,3.311a1.475,1.475,0,1,1-1.475-1.474A1.477,1.477,0,0,1,1015.982,420.148Z" transform="translate(-74.154 0)" fill="#fff"/>
    <path id="path_275" data-name="path 275" d="M933.182,451.31l-16.539-34.471h-2.412l18.043,37.609h1.814l18.044-37.61h-2.412Z" transform="translate(-18.537 0)" fill="#fff"/>
    <path id="path_276" data-name="path 276" d="M884.646,452.56l10.224-21.3-1.207-2.515-11.751,24.485.72,1.5h21.089l3.136,6.543h2.411l-4.178-8.718Z" transform="translate(0 -6.832)" fill="#fff"/>
  </g>
</svg>
