<svg xmlns="http://www.w3.org/2000/svg" width="64" height="64" viewBox="0 0 64 64">
  <g id="그룹_343" data-name="그룹 343" transform="translate(-302 -2679)">
    <rect id="사각형_31" data-name="사각형 31" width="64" height="64" rx="32" transform="translate(302 2679)" opacity="0.3"/>
    <g id="Ud6dA1.tif" transform="translate(-709.754 3028.753)">
      <g id="그룹_41" data-name="그룹 41">
        <path id="패스_27" data-name="패스 27" d="M1051.747-303.344l-.18-.075a1.141,1.141,0,0,1-.708-1.243,1.122,1.122,0,0,1,1.11-.933c.9-.007,1.8,0,2.7,0a1.137,1.137,0,0,0,1.241-1.241c0-.844,0-1.688,0-2.532a1.157,1.157,0,0,1,.935-1.279,1.15,1.15,0,0,1,1.29.839.472.472,0,0,0,.028.048v3.49c-.019.06-.045.119-.058.18a3.262,3.262,0,0,1-1.625,2.274,8.672,8.672,0,0,1-1.244.473Z" fill="#c09aff"/>
        <path id="패스_28" data-name="패스 28" d="M1035.762-332.162l.205.087a1.135,1.135,0,0,1,.682,1.23,1.118,1.118,0,0,1-1.083.932c-.909.01-1.819,0-2.728,0a1.135,1.135,0,0,0-1.241,1.24c0,.863,0,1.726,0,2.589a1.145,1.145,0,0,1-.934,1.223,1.138,1.138,0,0,1-1.277-.814.651.651,0,0,0-.042-.073v-3.489a1.789,1.789,0,0,0,.058-.181,3.17,3.17,0,0,1,1.415-2.136,9.549,9.549,0,0,1,1.454-.61Z" fill="#c09aff"/>
        <path id="패스_29" data-name="패스 29" d="M1058.163-325.746a1.252,1.252,0,0,1-.737.832,1.12,1.12,0,0,1-1.511-1.057c-.011-.9,0-1.8,0-2.7a1.14,1.14,0,0,0-1.241-1.24c-.853,0-1.706,0-2.559,0a1.146,1.146,0,0,1-1.25-.934,1.139,1.139,0,0,1,.839-1.286.341.341,0,0,0,.047-.031h3.489c.061.019.12.045.181.058a3.257,3.257,0,0,1,2.274,1.625,8.662,8.662,0,0,1,.472,1.244Z" fill="#c09aff"/>
        <path id="패스_30" data-name="패스 30" d="M1029.345-309.761l.075-.18a1.134,1.134,0,0,1,1.243-.7,1.112,1.112,0,0,1,.931,1.109c.008.9,0,1.8,0,2.7a1.14,1.14,0,0,0,1.241,1.241q1.28,0,2.559,0a1.144,1.144,0,0,1,1.25.934,1.14,1.14,0,0,1-.84,1.286.22.22,0,0,0-.045.032h-3.49a1.708,1.708,0,0,0-.18-.058,3.167,3.167,0,0,1-2.136-1.415,9.544,9.544,0,0,1-.611-1.454Z" fill="#c09aff"/>
        <path id="패스_31" data-name="패스 31" d="M1051.071-321.919l-2.3.836q-1.835.666-3.671,1.33c-.145.052-.23.1-.23.286q.01,4.446.006,8.892c0,.037.005.074.01.151.1-.033.2-.058.288-.091,1.713-.633,3.422-1.274,5.139-1.895a1,1,0,0,0,.771-.971,1.1,1.1,0,0,1,1.167-.989,1.133,1.133,0,0,1,1.066,1.1,3.038,3.038,0,0,1-2.033,2.887c-2.017.754-4.047,1.475-6.054,2.256a3.843,3.843,0,0,1-2.943,0c-1.989-.776-4-1.491-6-2.232a3.051,3.051,0,0,1-2.1-3.01q0-4.391,0-8.78a3.031,3.031,0,0,1,2.1-3.008c2.1-.777,4.2-1.549,6.294-2.334a3.18,3.18,0,0,1,2.3-.013c2.141.8,4.288,1.58,6.427,2.381a3.029,3.029,0,0,1,2.01,2.9q.006,1.661,0,3.321a1.127,1.127,0,0,1-1.122,1.19,1.127,1.127,0,0,1-1.128-1.183c0-.909,0-1.819,0-2.729Zm-14.619-.027c-.007.094-.014.149-.014.205q0,4.219,0,8.439a.81.81,0,0,0,.645.843l5.24,1.941c.092.034.186.062.294.1.005-.083.011-.129.011-.176q0-4.43.006-8.861c0-.2-.091-.254-.243-.309q-2.544-.932-5.087-1.868Zm12.533-1.611c-.073-.037-.1-.052-.123-.062-1.6-.592-3.19-1.193-4.793-1.768a1.077,1.077,0,0,0-.65.011c-.658.214-1.3.469-1.952.71-.955.355-1.91.712-2.892,1.078a1.5,1.5,0,0,0,.146.075c1.624.6,3.248,1.2,4.876,1.789a.6.6,0,0,0,.373-.017c.619-.214,1.233-.444,1.849-.667C1046.855-322.785,1047.892-323.161,1048.985-323.557Z" fill="#c09aff"/>
      </g>
    </g>
  </g>
</svg>
