<svg xmlns="http://www.w3.org/2000/svg" width="64" height="64" viewBox="0 0 64 64">
  <g id="그룹_346" data-name="그룹 346" transform="translate(-1586 -2679)">
    <rect id="사각형_63" data-name="사각형 63" width="64" height="64" rx="32" transform="translate(1586 2679)" opacity="0.3"/>
    <g id="그룹_284" data-name="그룹 284" transform="translate(1845 2002.131)">
      <path id="패스_289" data-name="패스 289" d="M-243,720.911a1.838,1.838,0,0,1,.941-.974c1.411-.779,2.81-1.581,4.152-2.34-.2-3.185-.084-6.334-.078-9.479a3.89,3.89,0,0,1,2.15-3.576q3.295-1.771,6.664-3.4a.818.818,0,0,0,.569-.9c-.031-1.713-.015-3.426-.01-5.14a1.2,1.2,0,0,1,.819-1.162,1.146,1.146,0,0,1,1.335.393,1.657,1.657,0,0,1,.271.842c.024,1.8.018,3.609.005,5.413,0,.248.089.327.3.428,1.089.517,2.167,1.06,3.244,1.6,1.141.574,2.277,1.159,3.416,1.738a4.25,4.25,0,0,1,2.493,4.058c0,2.565.006,5.13-.005,7.694a6.006,6.006,0,0,1-.132,1.2c-.049.231-.016.334.192.45,1.318.738,2.623,1.5,3.944,2.235a1.856,1.856,0,0,1,.94.976v.548c-.506,1.012-1.111,1.188-2.114.616-1.3-.744-2.615-1.475-3.907-2.238-.347-.205-.634-.316-.95.015a.862.862,0,0,1-.235.139c-2.133,1.106-4.262,2.221-6.4,3.314a4.225,4.225,0,0,1-4.061-.035q-1.418-.733-2.832-1.477c-1.4-.734-2.8-1.471-4.245-2.233-.024.013-.122.065-.218.12q-2.172,1.227-4.344,2.454a1.189,1.189,0,0,1-1.49-.115,3.648,3.648,0,0,1-.412-.622Zm23.834-4.591v-.307q0-3.833,0-7.666a1.864,1.864,0,0,0-1.091-1.787q-2.847-1.449-5.7-2.894c-.065-.033-.136-.053-.225-.088,0,.8.006,1.556,0,2.316a1.209,1.209,0,0,1-1.206,1.231,1.211,1.211,0,0,1-1.229-1.238c-.007-.689,0-1.379,0-2.069,0-.074-.013-.147-.023-.249l-5.641,2.886c.12.065.19.106.262.142,2.108,1.044,4.219,2.082,6.323,3.136a.566.566,0,0,0,.588-.01q1.712-.9,3.437-1.766a1.213,1.213,0,0,1,1.716.573,1.2,1.2,0,0,1-.6,1.59q-1.633.85-3.277,1.676a.437.437,0,0,0-.286.459c.011,2.8.007,5.6.007,8.4V721l5.351-2.774c-.791-.45-1.524-.863-2.252-1.284a2.044,2.044,0,0,1-.463-.339,1.193,1.193,0,0,1-.059-1.562,1.2,1.2,0,0,1,1.562-.3c.834.462,1.658.942,2.486,1.414C-219.4,716.207-219.3,716.253-219.166,716.32Zm-14.86,1.88,5.456,2.849c.008-.081.016-.119.016-.157q0-4.333.006-8.666c0-.2-.109-.256-.248-.325q-3.271-1.617-6.541-3.237a2.031,2.031,0,0,0-.2-.075v7.659c.13-.071.227-.123.323-.177.794-.449,1.584-.907,2.384-1.345a1.216,1.216,0,0,1,1.812.8,1.214,1.214,0,0,1-.639,1.326C-232.428,717.3-233.2,717.734-234.025,718.2Z" fill="#c09aff"/>
    </g>
  </g>
</svg>
