<svg xmlns="http://www.w3.org/2000/svg" width="141.505" height="19.362" viewBox="0 0 141.505 19.362">
  <g id="그룹_310" data-name="그룹 310" transform="translate(-645.546 -496.973)">
    <g id="그룹_304" data-name="그룹 304" transform="translate(775.793 497.323)">
      <path id="패스_292" data-name="패스 292" d="M1235.679,517.19h-11.257V498.527h11.257V499.9H1225.8v15.907h9.879Z" transform="translate(-1224.421 -498.527)" fill="#8443ff"/>
    </g>
    <g id="그룹_305" data-name="그룹 305" transform="translate(776.623 505.663)">
      <rect id="사각형_84" data-name="사각형 84" width="9.081" height="1.378" transform="translate(0)" fill="#8443ff"/>
    </g>
    <path id="패스_293" data-name="패스 293" d="M717.906,500.675H722l5.526,18.3h-3.773Z" transform="translate(-56.079 -2.869)" fill="#8443ff"/>
    <path id="패스_294" data-name="패스 294" d="M762.689,500.675h-4.1l-3.081,10.2,1.9,6.3Z" transform="translate(-85.222 -2.869)" fill="#8443ff"/>
    <g id="그룹_306" data-name="그룹 306" transform="translate(684.201 497.323)">
      <path id="패스_295" data-name="패스 295" d="M828.6,517.19H817.347V498.527H828.6V499.9h-9.879v15.907H828.6Z" transform="translate(-817.347 -498.527)" fill="#8443ff"/>
    </g>
    <g id="그룹_307" data-name="그룹 307" transform="translate(685.031 505.663)">
      <rect id="사각형_85" data-name="사각형 85" width="9.081" height="1.378" fill="#8443ff"/>
    </g>
    <path id="패스_296" data-name="패스 296" d="M999.883,516.335c-5.994,0-6.236-5.853-6.238-5.912v-7.59a5.428,5.428,0,0,1,1.532-4.009,7.469,7.469,0,0,1,4.82-1.852,5.979,5.979,0,0,1,4.423,1.635,6.453,6.453,0,0,1,1.7,4.231l-1.378-.011.689.005-.689,0a5.116,5.116,0,0,0-1.309-3.26,4.668,4.668,0,0,0-3.44-1.219h0a6.917,6.917,0,0,0-2.581.59,3.956,3.956,0,0,0-2.39,3.892V510.4a4.665,4.665,0,0,0,4.861,4.554,4.565,4.565,0,0,0,4.182-1.964,4.689,4.689,0,0,0,.679-2.05v-3H999.8v-1.378h5.634l.689.689v3.718C1006.119,511.045,1005.875,516.335,999.883,516.335Z" transform="translate(-269.777 0)" fill="#8443ff"/>
    <rect id="사각형_86" data-name="사각형 86" width="1.378" height="19.011" transform="translate(744.515 497.148)" fill="#8443ff"/>
    <path id="패스_297" data-name="패스 297" d="M656.425,518.974h-3.709v-2.835h-7.17v-3.273l7.168-12.153h3.656l-6.62,11.947h2.967l-.008-11.984h3.716v11.984h1.443v3.479h-1.443Z" transform="translate(0 -2.869)" fill="#8443ff"/>
    <g id="그룹_308" data-name="그룹 308" transform="translate(702.528 497.257)">
      <path id="패스_298" data-name="패스 298" d="M907.439,509.386h0l-7.377-11.148H898.8V517.03h1.378V500.907l10.668,16.123h1.264v-.565Z" transform="translate(-898.799 -498.237)" fill="#8443ff"/>
      <path id="패스_299" data-name="패스 299" d="M953.207,513.807v-15.57h-1.378v13.48Z" transform="translate(-939.898 -498.237)" fill="#8443ff"/>
    </g>
    <g id="그룹_309" data-name="그룹 309" transform="translate(754.388 497.257)">
      <path id="패스_300" data-name="패스 300" d="M1183.693,513.821V498.237h-1.378v13.495Z" transform="translate(-1170.383 -498.237)" fill="#8443ff"/>
      <path id="패스_301" data-name="패스 301" d="M1137.915,509.386l.007,0-7.374-11.144h-1.264V517.03h1.378V500.907l10.668,16.123h1.264v-.55Z" transform="translate(-1129.285 -498.237)" fill="#8443ff"/>
    </g>
  </g>
</svg>
