<?xml version="1.0" encoding="utf-8"?>
<!-- Generator: Adobe Illustrator 25.4.1, SVG Export Plug-In . SVG Version: 6.00 Build 0)  -->
<svg version="1.1" id="레이어_1" xmlns="http://www.w3.org/2000/svg" xmlns:xlink="http://www.w3.org/1999/xlink" x="0px"
	 y="0px" viewBox="0 0 1052 413.5" style="enable-background:new 0 0 1052 413.5;" xml:space="preserve">
<style type="text/css">
	.st0{fill:#242424;}
	.st1{fill:#8443FF;}
	.st2{enable-background:new    ;}
	.st3{fill:#FFFFFF;}
	.st4{opacity:0.3;}
	.st5{fill:none;stroke:#000000;}
</style>
<g id="그룹_396" transform="translate(1642 -3164.531)">
	<path id="패스_307" class="st0" d="M-1242.6,3173.5h253.2v60.9h-253.2V3173.5z"/>
	<g id="그룹_395">
		<g transform="matrix(1, 0, 0, 1, -1642, 3164.53)">
			<path id="사각형_104-2" class="st1" d="M29,153.5h297c7.7,0,14,6.3,14,14v223c0,7.7-6.3,14-14,14H29c-7.7,0-14-6.3-14-14v-223
				C15,159.7,21.3,153.5,29,153.5z"/>
		</g>
		<g transform="matrix(1, 0, 0, 1, -1642, 3164.53)">
			<path id="사각형_105-2" class="st1" d="M377,153.5h297c7.7,0,14,6.3,14,14v223c0,7.7-6.3,14-14,14H377c-7.7,0-14-6.3-14-14
				v-223C363,159.7,369.3,153.5,377,153.5z"/>
		</g>
		<g transform="matrix(1, 0, 0, 1, -1642, 3164.53)">
			<path id="사각형_106-2" class="st1" d="M726,153.5h297c7.7,0,14,6.3,14,14v223c0,7.7-6.3,14-14,14H726c-7.7,0-14-6.3-14-14
				v-223C712,159.7,718.3,153.5,726,153.5z"/>
		</g>
		<g class="st2">
			<path class="st3" d="M-1567.5,3428.1l-2.3,3.3c-3.3-1.5-5.5-4.3-6.8-7.8c-1.3,3.9-3.5,6.9-7,8.5l-2.4-3.4c5-2.2,7.3-7.6,7.3-13.2
				v-4.2h4.1v4.2C-1574.6,3420.8-1572.3,3426-1567.5,3428.1z M-1566.1,3437.7v-28.6h4.1v28.6H-1566.1z"/>
			<path class="st3" d="M-1542,3426.1l0.4,3.3c-4.7,1-9.2,1.2-13.5,1.2h-2.5v-18.9h4.1v15.4C-1549.8,3427.2-1546,3426.8-1542,3426.1
				z M-1536,3437.6h-4.1v-28.5h4.1v10.8h4v3.4h-4V3437.6z"/>
			<path class="st3" d="M-1513.4,3426.8l0.4,3.3c-4.7,0.8-8.8,1-14,1h-2.6v-11.8h9.3v-4.6h-9.3v-3.3h13.5v11h-9.3v5.1
				C-1521.1,3427.7-1517.4,3427.4-1513.4,3426.8z M-1511.4,3437.7v-28.6h4.1v28.6H-1511.4z"/>
			<path class="st3" d="M-1503.8,3434.3v-3.3h10.9v-4.8c-5.1-0.6-8.6-3.5-8.6-7.8c0-4.8,4.6-7.9,10.6-7.9c6.1,0,10.7,3.1,10.7,7.9
				c0,4.2-3.6,7.2-8.6,7.8v4.8h10.9v3.3H-1503.8z M-1490.9,3423.1c3.9,0,6.6-1.7,6.6-4.6c0-2.9-2.7-4.6-6.6-4.6
				c-3.9,0-6.6,1.7-6.6,4.6C-1497.5,3421.4-1494.8,3423.1-1490.9,3423.1z"/>
			<path class="st3" d="M-1468.5,3432.8l-2.1-3.2c7.3-3.5,10.4-8,11-14.3h-9.5v-3.3h13.7C-1455.5,3420.8-1458.4,3428-1468.5,3432.8z
				 M-1451.1,3437.6v-28.6h4.1v28.6H-1451.1z"/>
			<path class="st3" d="M-1442.6,3411.2h4v4.1h5.6v-4.1h4v14.5h-13.7V3411.2z M-1420,3437.2h-19.4v-9.1h4.1v5.9h15.3V3437.2z
				 M-1438.6,3422.4h5.6v-4.1h-5.6V3422.4z M-1421,3420.5v9.6h-4.1v-21h4.1v8.1h3.8v3.3H-1421z"/>
		</g>
		<g class="st2">
			<path class="st3" d="M-1397.3,3428.4l0.2,1.3c-6.4,1.1-13.1,1.1-18.2,1.1l-0.3-1.4C-1410.5,3429.4-1403.4,3429.4-1397.3,3428.4z
				 M-1399.5,3418c0,3.8-2.9,6.3-7.3,6.3c-4.3,0-7.3-2.5-7.3-6.3c0-3.8,2.9-6.3,7.3-6.3C-1402.5,3411.7-1399.5,3414.3-1399.5,3418z
				 M-1412.5,3418c0,2.9,2.4,4.9,5.7,4.9c3.3,0,5.7-2,5.7-4.9s-2.4-4.9-5.7-4.9C-1410.1,3413.2-1412.5,3415.2-1412.5,3418z
				 M-1395.3,3437.2v-27.6h1.6v27.6H-1395.3z"/>
		</g>
		<g class="st2">
			<path class="st3" d="M-1567.4,3474.7h-1.6v-14.1h-4.9v7.9h-10.3V3452h10.3v7.2h4.9v-9.9h1.6V3474.7z M-1582.6,3467.1h7.2v-13.8
				h-7.2V3467.1z M-1563.6,3476.2v-27.5h1.6v27.5H-1563.6z"/>
			<path class="st3" d="M-1541.6,3466.9l0.2,1.4c-4.3,0.7-7.8,1-13.2,1h-2.1v-18h12.8v1.4h-11.1v6.4h10.4v1.4h-10.4v7.5h0.4
				C-1549.3,3467.9-1545.8,3467.7-1541.6,3466.9z M-1537,3476.2h-1.6v-27.6h1.6v11.4h4.8v1.4h-4.8V3476.2z"/>
			<path class="st3" d="M-1509.9,3476.2v-15.6h-7.3v8.4h-12.3v-18.1h1.6v7.5h9.1v-7.5h1.6v8.4h7.3v-10.5h1.6v27.5H-1509.9z
				 M-1527.9,3467.6h9.1v-7.9h-9.1V3467.6z"/>
			<path class="st3" d="M-1503.4,3472.2v-1.4h25v1.4H-1503.4z M-1491,3456c-1.7,4.3-6.6,7.3-10.3,8.3l-0.8-1.4
				c3.9-0.8,10.2-4.9,10.2-10v-2.2h1.7v2.2c0,5.1,6.4,9.3,10.3,10l-0.8,1.4C-1484.3,3463.4-1489.3,3460.3-1491,3456z"/>
			<path class="st3" d="M-1457.2,3476.2h-1.6v-12.4h-11.6v-1.4h18.9c0.9-4,0.9-6.9,0.9-9.5v-1h-16.5v-1.4h18.1v2.4
				c0,2.6,0,5.5-0.8,9.5h4.3v1.4h-11.6V3476.2z"/>
			<path class="st3" d="M-1421.4,3467.6v8.4h-1.6v-7h-17.4v-1.4h8.9v-3.6h-11.7v-1.4h24.9v1.4h-11.6v3.6H-1421.4z M-1431.6,3452.8
				h-8.9v-1.4h9v-3.1h1.6v3.1h9v1.4h-9c0,3.8,5.4,6.1,9.8,6.6l-0.5,1.3c-4.2-0.6-8.6-2.3-10.2-5.5c-1.6,3.2-6,4.9-10.2,5.5l-0.5-1.3
				C-1437,3459-1431.6,3456.6-1431.6,3452.8z"/>
		</g>
		<g class="st2">
			<path class="st3" d="M-1226,3398.2h-1.6v-10.3h-11.6v-1.4h25v1.4h-11.8V3398.2z M-1236,3372.1h1.6v8.2h17v1.4h-18.6V3372.1z"/>
			<path class="st3" d="M-1198.7,3398.2h-1.6v-12.4h-11.6v-1.4h18.9c0.9-4,0.9-6.9,0.9-9.5v-1h-16.5v-1.4h18.1v2.4
				c0,2.6,0,5.5-0.8,9.5h4.3v1.4h-11.6V3398.2z"/>
			<path class="st3" d="M-1168.5,3388.4l0.2,1.4c-4.8,1-8.8,1.3-13.1,1.3h-2.1v-17.7h1.6v16.3h0.4
				C-1177.1,3389.6-1173.1,3389.3-1168.5,3388.4z M-1163.7,3398.2h-1.6v-27.6h1.6v11.3h4.8v1.4h-4.8V3398.2z"/>
			<path class="st3" d="M-1151.4,3384.4l-0.2-1.4c5.2,0,12.2,0,18.3-0.8l0.1,1.2c-2.7,0.5-5.4,0.7-8.2,0.8v4.6h-1.6v-4.6
				C-1146.1,3384.4-1149,3384.4-1151.4,3384.4z M-1142.5,3375.3c-1.1,2.7-3.8,4.7-7.1,5.5l-0.7-1.3c3.8-1,6.9-3.6,6.9-6.8v-1.5h1.7
				v1.5c0,3.1,3.3,5.5,7,6.4l-0.7,1.3C-1138.7,3379.6-1141.4,3377.8-1142.5,3375.3z M-1129.7,3397.7h-17.6v-9.9h1.6v3.4h14.3v-3.4
				h1.6V3397.7z M-1145.6,3396.3h14.3v-3.7h-14.3V3396.3z M-1131.3,3386.4v-15.8h1.6v15.8H-1131.3z"/>
			<path class="st3" d="M-1107,3396.7h-1.6v-13h-6.5c-1.7,3.2-4.3,6.1-8.2,8.4l-1.1-1.2c6.3-3.8,9.5-9.2,9.9-15.2h-8.9v-1.4h10.5
				c0,2.8-0.6,5.5-1.6,8h5.9v-10.9h1.6V3396.7z M-1102.8,3398.2v-27.5h1.6v27.5H-1102.8z"/>
		</g>
		<g class="st2">
			<path class="st3" d="M-1221.4,3435.7h-1.6v-14.1h-4.9v7.9h-10.3V3413h10.3v7.2h4.9v-9.9h1.6V3435.7z M-1236.6,3428.1h7.2v-13.8
				h-7.2V3428.1z M-1217.6,3437.2v-27.5h1.6v27.5H-1217.6z"/>
			<path class="st3" d="M-1195.6,3427.9l0.2,1.4c-4.3,0.7-7.8,1-13.2,1h-2.1v-18h12.8v1.4h-11.1v6.4h10.4v1.4h-10.4v7.5h0.4
				C-1203.3,3428.9-1199.8,3428.7-1195.6,3427.9z M-1191,3437.2h-1.6v-27.6h1.6v11.4h4.8v1.4h-4.8V3437.2z"/>
			<path class="st3" d="M-1163.9,3437.2v-15.6h-7.3v8.4h-12.3v-18.1h1.6v7.5h9.1v-7.5h1.6v8.4h7.3v-10.5h1.6v27.5H-1163.9z
				 M-1181.9,3428.6h9.1v-7.9h-9.1V3428.6z"/>
			<path class="st3" d="M-1157.4,3433.2v-1.4h25v1.4H-1157.4z M-1145,3417c-1.7,4.3-6.6,7.3-10.3,8.3l-0.8-1.4
				c3.9-0.8,10.2-4.9,10.2-10v-2.2h1.7v2.2c0,5.1,6.4,9.3,10.3,10l-0.8,1.4C-1138.3,3424.4-1143.3,3421.3-1145,3417z"/>
			<path class="st3" d="M-1130.2,3424v-1.3h25v1.3H-1130.2z M-1107.4,3436.7h-19.6v-5.7h17v-2.9h-17.1v-1.3h18.7v5.4h-17v3.2h18
				V3436.7z M-1126.9,3410.6h18.4v5.3h-16.8v3h17.3v1.3h-18.9v-5.5h16.8v-2.8h-16.8V3410.6z"/>
		</g>
		<g class="st2">
			<path class="st3" d="M-1226,3476.2h-1.6v-12.4h-11.6v-1.4h18.9c0.9-4,0.9-6.9,0.9-9.5v-1h-16.5v-1.4h18.1v2.4
				c0,2.6,0,5.5-0.8,9.5h4.3v1.4h-11.6V3476.2z"/>
			<path class="st3" d="M-1190.2,3467.6v8.4h-1.6v-7h-17.4v-1.4h8.9v-3.6h-11.7v-1.4h24.9v1.4h-11.6v3.6H-1190.2z M-1200.4,3452.8
				h-8.9v-1.4h9v-3.1h1.6v3.1h9v1.4h-9c0,3.8,5.4,6.1,9.8,6.6l-0.5,1.3c-4.2-0.6-8.6-2.3-10.2-5.5c-1.6,3.2-6,4.9-10.2,5.5l-0.5-1.3
				C-1205.8,3459-1200.4,3456.6-1200.4,3452.8z"/>
			<path class="st3" d="M-1184.6,3451.4h7.3v-3.1h1.6v3.1h7.3v1.3h-16.3V3451.4z M-1176.4,3463.4c-4,0-6.5-1.7-6.5-4.5
				s2.6-4.5,6.5-4.5c3.9,0,6.5,1.7,6.5,4.5S-1172.5,3463.4-1176.4,3463.4z M-1176.4,3462.1c3,0,4.9-1.3,4.9-3.3s-2-3.3-4.9-3.3
				s-5,1.3-5,3.3S-1179.4,3462.1-1176.4,3462.1z M-1162.3,3475.8h-18.1v-6h15.4v-3h-15.5v-1.3h17.1v5.6h-15.4v3.3h16.5V3475.8z
				 M-1163.5,3457v6.9h-1.6v-15.4h1.6v7.1h4.3v1.4H-1163.5z"/>
			<path class="st3" d="M-1138.5,3476.1h-1.6v-10.3h-11.6v-1.4h24.9l0,1.4h-11.7V3476.1z M-1139.3,3454.1c-1.6,3.6-6.4,6-10.3,6.8
				l-0.7-1.4c4.2-0.7,10.1-3.8,10.1-8.1v-1.7h1.7v1.7c0,4.2,6,7.5,10.1,8.1l-0.7,1.4C-1132.8,3460.1-1137.6,3457.7-1139.3,3454.1z"
				/>
			<path class="st3" d="M-1118.1,3456.7c0-3.8,2.9-6.3,6.9-6.3c4.1,0,7,2.5,7,6.3c0,3.8-2.9,6.3-7,6.3
				C-1115.2,3463-1118.1,3460.4-1118.1,3456.7z M-1093.9,3474.5l-0.8,1.3c-2.9-1.1-4.8-3.1-5.8-5.5c-0.8,2.3-2.5,4.5-5.1,5.7
				c-2.7-1.1-4.4-3.3-5.2-5.6c-1,2.4-2.9,4.3-5.7,5.4l-0.8-1.3c3.4-1.3,5.8-4.4,5.8-7v-1.8h1.6v1.8c0,2.6,1.5,5.4,4.3,6.9
				c2.8-1.6,4.4-4.7,4.4-6.9v-1.8h1.6v1.8C-1099.7,3470.4-1097.3,3473.3-1093.9,3474.5z M-1116.5,3456.7c0,2.8,2.3,4.9,5.4,4.9
				c3.1,0,5.4-2.1,5.4-4.9c0-2.9-2.3-4.9-5.4-4.9C-1114.2,3451.7-1116.5,3453.8-1116.5,3456.7z M-1098.1,3448.6h1.6v15.8h-1.6
				V3448.6z"/>
			<path class="st3" d="M-1091.6,3464.4v-1.4h25v1.4H-1091.6z M-1069.4,3475.5h-18.8v-8h1.6v6.6h17.1V3475.5z M-1088,3449.6h1.6v7.8
				h16.9v1.4h-18.5V3449.6z"/>
		</g>
		<g class="st2">
			<path class="st3" d="M-1221.9,3506.6l-2.4,3.2c-3.2-1.6-5.4-4.5-6.7-8.1c-1.2,3.9-3.4,7-6.7,8.7l-2.4-3.2c4.8-2.2,7-7.8,7-13v-1
				h-5.9v-3.3h15.8v3.3h-5.9v1C-1228.9,3499.2-1226.6,3504.5-1221.9,3506.6z M-1219.8,3515.7v-15.3h-5v-3.3h5v-10h4.1v28.6H-1219.8z
				"/>
			<path class="st3" d="M-1203.9,3497.8c-1.3,2.8-3.4,5-6.8,6l-2.1-3.2c4.7-1.5,6.7-5.1,6.8-8.6h-5.7v-3.3h15.4v3.3h-5.6
				c0.1,3.3,2.1,6.6,6.5,8.1l-2.1,3.2C-1200.5,3502.3-1202.7,3500.3-1203.9,3497.8z M-1189.9,3515.7h-4.1v-6.9h-15v-3.3h19.1V3515.7
				z M-1189.9,3504.3h-4.1v-17.2h4.1v6.9h3.8v3.4h-3.8V3504.3z"/>
			<path class="st3" d="M-1185.1,3512.4v-3.3h10.9v-6h-7.8v-14.1h19.9v3.3h-15.8v7.5h16v3.3h-8.2v6h10.9v3.3H-1185.1z"/>
			<path class="st3" d="M-1143,3515.7h-4.2v-11.5h-10.7v-3.3h18c0.7-3.6,0.8-6.4,0.8-8.9h-15.8v-3.3h19.8v2.6c0,2.7,0,5.6-0.7,9.6
				h3.8v3.3h-11V3515.7z"/>
		</g>
		<g class="st2">
			<path class="st3" d="M-874.6,3379.8c0,4.6-3.1,6.7-8.1,6.7h-4.1v9.5h-1.9v-22.6h5.9C-877.8,3373.4-874.6,3375.1-874.6,3379.8z
				 M-876.5,3379.8c0-3.7-2.2-4.8-6.7-4.8h-3.6v10h3.8C-878.6,3384.9-876.5,3383.4-876.5,3379.8z"/>
			<path class="st3" d="M-872.4,3384.7c0-7.2,4-11.7,9.7-11.7c2.7,0,4.7,1.3,6,2.7l-1.1,1.2c-1.2-1.4-2.8-2.3-4.9-2.3
				c-4.8,0-7.8,3.8-7.8,10c0,6.2,2.9,10.1,7.7,10.1c2.4,0,4-1,5.6-2.7l1.1,1.2c-1.7,2-3.8,3.2-6.8,3.2
				C-868.4,3396.4-872.4,3391.9-872.4,3384.7z"/>
		</g>
		<g class="st2">
			<path class="st3" d="M-848.6,3383l-0.2-1.4c3.9,0,10.2-0.1,14.9-0.8l0.1,1.2c-2.1,0.5-4.3,0.7-6.6,0.8v4.9h-1.6v-4.8
				C-844.5,3383-846.7,3383-848.6,3383z M-847.2,3375.6c0-2.5,2.4-4,6-4s6,1.5,6,4c0,2.6-2.4,4.1-6,4.1S-847.2,3378.2-847.2,3375.6z
				 M-845.7,3375.6c0,1.7,1.7,2.9,4.4,2.9s4.4-1.1,4.4-2.9s-1.7-2.8-4.4-2.8S-845.7,3373.9-845.7,3375.6z M-825.9,3397.7h-17.9v-8.9
				h1.6v3h14.6v-3h1.6V3397.7z M-842.1,3396.4h14.6v-3.2h-14.6V3396.4z M-830.6,3371.1v16.5h-1.6v-2h-5.3v-1.3h5.3v-13.3H-830.6z
				 M-827.5,3387.7v-17.1h1.6v17.1H-827.5z"/>
			<path class="st3" d="M-821.2,3398.2h-1.3l1.3-6.1h1.8L-821.2,3398.2z"/>
		</g>
		<g class="st2">
			<path class="st3" d="M-890.3,3433.4v-1.4h11.6v-7.4h-8.5v-12.6h18.7v12.6h-8.5v7.4h11.8v1.4H-890.3z M-870,3413.4h-15.5v10h15.5
				V3413.4z"/>
			<path class="st3" d="M-849.2,3430.4h-12.5V3412h1.6v7.6h9.2v-7.6h1.6V3430.4z M-860.1,3429h9.2v-8h-9.2V3429z M-842,3437.2h-1.6
				v-27.5h1.6v11.2h4.8v1.5h-4.8V3437.2z"/>
			<path class="st3" d="M-828,3422.7c-4.1,0-6.9-2.4-6.9-6c0-3.6,2.9-6,6.9-6s6.9,2.4,6.9,6C-821,3420.3-823.9,3422.7-828,3422.7z
				 M-828,3421.4c3.1,0,5.3-2,5.3-4.6c0-2.6-2.3-4.6-5.3-4.6s-5.3,2-5.3,4.6C-833.3,3419.4-831,3421.4-828,3421.4z M-830.7,3436.7
				v-6.5h15.8v-3.4h-15.9v-1.4h17.5v6.1h-15.8v3.8h16.9v1.4H-830.7z M-814.9,3409.6h1.6v14.4h-1.6V3409.6z"/>
			<path class="st3" d="M-802.7,3422l-0.2-1.4c3.9,0,10.2-0.1,14.9-0.8l0.1,1.2c-2.1,0.5-4.3,0.7-6.6,0.8v4.9h-1.6v-4.8
				C-798.6,3422-800.8,3422-802.7,3422z M-801.3,3414.6c0-2.5,2.4-4,6-4s6,1.5,6,4c0,2.6-2.4,4.1-6,4.1S-801.3,3417.2-801.3,3414.6z
				 M-799.8,3414.6c0,1.7,1.7,2.9,4.4,2.9s4.4-1.1,4.4-2.9s-1.7-2.8-4.4-2.8S-799.8,3412.9-799.8,3414.6z M-780,3436.7h-17.9v-8.9
				h1.6v3h14.6v-3h1.6V3436.7z M-796.2,3435.4h14.6v-3.2h-14.6V3435.4z M-784.7,3410.1v16.5h-1.6v-2h-5.3v-1.3h5.3v-13.3H-784.7z
				 M-781.6,3426.7v-17.1h1.6v17.1H-781.6z"/>
			<path class="st3" d="M-775.3,3437.2h-1.3l1.3-6.1h1.8L-775.3,3437.2z"/>
		</g>
		<g class="st2">
			<path class="st3" d="M-761,3425.4c0.8,2.7,1.4,4.8,2.3,7.6h0.1c0.9-2.7,1.5-4.9,2.4-7.6l4-13h1.9l-7.3,22.6h-2l-7.4-22.6h2
				L-761,3425.4z"/>
			<path class="st3" d="M-746.2,3424.8v10.2h-1.9v-22.6h6.6c4.5,0,7.5,1.7,7.5,6c0,3.6-2.1,5.7-5.6,6.2l6.1,10.4h-2.1l-6-10.2
				H-746.2z M-735.9,3418.4c0-3.3-2.1-4.5-6.1-4.5h-4.3v9.3h4.3C-738,3423.2-735.9,3421.7-735.9,3418.4z"/>
		</g>
		<g class="st2">
			<path class="st3" d="M-887.2,3476.2v-8.5h4v-3.8c-2.5,0.1-4.9,0.2-7,0.2l-0.5-3.3c5.2,0,12.2-0.1,18.2-0.9l0.3,2.9
				c-2.2,0.4-4.5,0.7-6.8,0.8v5.4h-3.9v3.9h17.1v3.3H-887.2z M-888.7,3454.2c0-3.1,2.9-5.1,7.1-5.1c4.1,0,7.1,2,7.1,5.1
				c0,3-3,5.1-7.1,5.1C-885.8,3459.3-888.7,3457.2-888.7,3454.2z M-884.8,3454.2c0,1.4,1.3,2.1,3.3,2.1c1.9,0,3.2-0.7,3.2-2.1
				c0-1.4-1.3-2.1-3.2-2.1C-883.6,3452-884.8,3452.8-884.8,3454.2z M-866.6,3448.1v21.6h-4.1v-2.3h-5.4v-2.8h5.4v-16.6H-866.6z"/>
			<path class="st3" d="M-846.9,3455.6h-16.6v-3.3h6.3v-3.7h4.1v3.7h6.2V3455.6z M-847.9,3464c0,4.1-3.1,6.9-7.2,6.9
				c-4.2,0-7.3-2.8-7.3-6.9c0-4,3.1-6.8,7.3-6.8C-851,3457.2-847.9,3460-847.9,3464z M-851.8,3464c0-2.1-1.3-3.5-3.3-3.5
				s-3.3,1.3-3.3,3.5s1.4,3.5,3.3,3.5S-851.8,3466.2-851.8,3464z M-841,3476.7h-4.1v-28.6h4.1v11.2h4.1v3.4h-4.1V3476.7z"/>
			<path class="st3" d="M-836.1,3465.3v-3.3h25.9v3.3H-836.1z M-812.9,3476.1h-20.2v-8.5h4.1v5.2h16.1V3476.1z M-832.9,3449.1h4.1
				v6.7h15.7v3.3h-19.8V3449.1z"/>
			<path class="st3" d="M-800.8,3471.8l-2.1-3.2c7.3-3.5,10.4-8,11-14.3h-9.5v-3.3h13.7C-787.7,3459.8-790.7,3467-800.8,3471.8z
				 M-783.4,3476.6v-28.6h4.1v28.6H-783.4z"/>
			<path class="st3" d="M-773.5,3471.8l-2.1-3.2c7.3-3.5,10.4-8,11-14.3h-9.5v-3.3h13.7C-760.5,3459.8-763.4,3467-773.5,3471.8z
				 M-756.1,3476.6v-28.6h4.1v28.6H-756.1z"/>
			<path class="st3" d="M-748.5,3473.5v-3.3h10.9v-4.2h-7.9v-9.7h15.9v-3.1h-16v-3.3h20v9.5h-15.9v3.2h16.6v3.3h-8.7v4.2h10.9v3.3
				H-748.5z"/>
		</g>
		<g class="st2">
			<path class="st3" d="M-872,3514.4h-3.8v-13.6h-2.8v7.8h-11.3V3490h11.3v7.4h2.8v-9.9h3.8V3514.4z M-886,3505.3h3.7v-12.1h-3.7
				V3505.3z M-870,3515.6v-28.6h3.9v28.6H-870z"/>
			<path class="st3" d="M-847.1,3505.2l0.4,3.3c-4.4,0.7-8.1,0.8-13.1,0.8h-2.4v-19.8h13.4v3.3h-9.3v4.7h8.9v3.2h-8.9v5.3
				C-854.2,3505.9-850.9,3505.8-847.1,3505.2z M-841,3515.7h-4.1v-28.6h4.1v10.8h4.2v3.4h-4.2V3515.7z"/>
			<path class="st3" d="M-816.2,3515.7v-15.3h-5.1v8.6h-13.7v-19.7h4.1v6.9h5.6v-6.9h4v7.8h5.1v-10h4.1v28.6H-816.2z M-831,3505.7
				h5.6v-6.3h-5.6V3505.7z"/>
			<path class="st3" d="M-808.8,3512.2v-3.3h25.9v3.3H-808.8z M-796.1,3496.6c-1.9,3.6-5.4,6.4-10.4,7.4l-1.7-3.4
				c6.4-1.1,10-5.7,10-9.7v-2h4.4v2c0,4.1,3.5,8.7,10,9.7l-1.7,3.4C-790.6,3503-794.2,3500.2-796.1,3496.6z"/>
			<path class="st3" d="M-761.2,3506.7l-2.4,3c-2.6-1.5-4.1-4-5.1-7c-1,3.3-2.6,6-5.2,7.7l-2.4-3c4.2-2.7,5.6-7.7,5.6-12.7v-1.4
				h-4.6v-3.3h12.7v3.3h-4.2v1.4C-766.7,3499.4-765.3,3504.3-761.2,3506.7z M-757.1,3514.4h-3.8v-14.2h-3.6v-3.3h3.6v-9.3h3.8
				V3514.4z M-755.1,3515.6v-28.6h3.9v28.6H-755.1z"/>
			<path class="st3" d="M-748.4,3503.1v-3.2h9.5v-5h4.1v5h12.1v3.2H-748.4z M-725.6,3510.3c0,3.3-4,5.4-10.1,5.4
				c-6.1,0-10.1-2-10.1-5.4c0-3.3,4-5.4,10.1-5.4C-729.6,3504.9-725.6,3507-725.6,3510.3z M-729.8,3491.6h-15.7v-3.2h19.8v2.4
				c0,2.3,0,4.7-0.8,7.6l-4-0.4C-729.9,3495.4-729.8,3493.5-729.8,3491.6z M-729.7,3510.3c0-1.6-2.2-2.3-6.1-2.3c-3.9,0-6,0.7-6,2.3
				c0,1.5,2.2,2.3,6,2.3C-731.9,3512.6-729.7,3511.8-729.7,3510.3z"/>
		</g>
	</g>
	<g id="그룹_393" transform="translate(-1864.546 2684.027)">
		<g id="그룹_304" transform="translate(835.673 497.483)">
			<path id="패스_292" class="st3" d="M16.4,36.2H0V9h16.4v2H2v23.2h14.4V36.2z"/>
		</g>
		<g id="그룹_305" transform="translate(836.883 509.657)">
			<rect id="사각형_84" x="0" y="9" class="st3" width="13.3" height="2"/>
		</g>
		<path id="패스_293" class="st3" d="M669.3,507.2h6l8.1,26.7h-5.5L669.3,507.2z"/>
		<path id="패스_294" class="st3" d="M692.1,507.2h-6l-4.5,14.9l2.8,9.2L692.1,507.2z"/>
		<g id="그룹_306" transform="translate(701.972 497.483)">
			<path id="패스_295" class="st3" d="M16.4,36.2H0V9h16.4v2H2v23.2h14.4V36.2z"/>
		</g>
		<g id="그룹_307" transform="translate(703.183 509.657)">
			<rect id="사각형_85" x="0" y="9" class="st3" width="13.3" height="2"/>
		</g>
		<path id="패스_296" class="st3" d="M769,534.2c-8.8,0-9.1-8.5-9.1-8.6v-11.1c-0.1-2.2,0.7-4.3,2.2-5.9c2.7-2.7,6.9-2.7,7-2.7
			c2.4-0.1,4.7,0.7,6.5,2.4c1.6,1.7,2.4,3.9,2.5,6.2l-2,0l1,0h-1c-0.1-1.8-0.7-3.4-1.9-4.8c-1.4-1.2-3.2-1.9-5-1.8l0,0
			c-1.3,0-2.6,0.3-3.8,0.9c-2.2,1-3.6,3.2-3.5,5.7v11c0,0.2,0.3,6.6,7.1,6.6c2.9,0,4.9-1,6.1-2.9c0.6-0.9,0.9-1.9,1-3V522h-7.2v-2
			h8.2l1,1v5.4C778.1,526.5,777.7,534.2,769,534.2z"/>
		<rect id="사각형_86" x="790" y="506.2" class="st3" width="2" height="27.8"/>
		<path id="패스_297" class="st3" d="M661.4,533.9H656v-4.1h-10.5V525l10.5-17.7h5.3l-9.7,17.4h4.3l0-17.5h5.4v17.5h2.1v5.1h-2.1
			L661.4,533.9z"/>
		<g id="그룹_308" transform="translate(728.725 497.388)">
			<path id="패스_298" class="st3" d="M12.6,25.3L12.6,25.3L1.8,9H0v27.4h2V12.9l15.6,23.5h1.8v-0.8L12.6,25.3z"/>
			<path id="패스_299" class="st3" d="M19.4,31.7V9h-2v19.7L19.4,31.7z"/>
		</g>
		<g id="그룹_309" transform="translate(804.426 497.388)">
			<path id="패스_300" class="st3" d="M19.4,31.7V9h-2v19.7L19.4,31.7z"/>
			<path id="패스_301" class="st3" d="M12.6,25.3L12.6,25.3L1.8,9H0v27.4h2V12.9l15.6,23.5h1.8v-0.8L12.6,25.3z"/>
		</g>
	</g>
	<g id="그룹_394" transform="translate(2073.083 2233.433) rotate(90)" class="st4">
		<line id="선_4" class="st5" x1="1020.5" y1="3189.3" x2="1084.6" y2="2928.5"/>
		<line id="선_5" class="st5" x1="1020.5" y1="3189.3" x2="1084.6" y2="3189.3"/>
		<line id="선_6" class="st5" x1="1020.5" y1="3189.3" x2="1084.6" y2="3450.1"/>
	</g>
</g>
</svg>
