<svg xmlns="http://www.w3.org/2000/svg" xmlns:xlink="http://www.w3.org/1999/xlink" width="949" height="195" viewBox="0 0 949 195">
  <defs>
    <filter id="사각형_97" x="0" y="93" width="315" height="102" filterUnits="userSpaceOnUse">
      <feOffset dy="3" input="SourceAlpha"/>
      <feGaussianBlur stdDeviation="3" result="blur"/>
      <feFlood flood-color="#c09aff"/>
      <feComposite operator="in" in2="blur"/>
      <feComposite in="SourceGraphic"/>
    </filter>
    <filter id="사각형_97-2" x="317" y="93" width="315" height="102" filterUnits="userSpaceOnUse">
      <feOffset dy="3" input="SourceAlpha"/>
      <feGaussianBlur stdDeviation="3" result="blur-2"/>
      <feFlood flood-color="#c09aff"/>
      <feComposite operator="in" in2="blur-2"/>
      <feComposite in="SourceGraphic"/>
    </filter>
    <filter id="사각형_97-3" x="634" y="93" width="315" height="102" filterUnits="userSpaceOnUse">
      <feOffset dy="3" input="SourceAlpha"/>
      <feGaussianBlur stdDeviation="3" result="blur-3"/>
      <feFlood flood-color="#c09aff"/>
      <feComposite operator="in" in2="blur-3"/>
      <feComposite in="SourceGraphic"/>
    </filter>
  </defs>
  <g id="그룹_341" data-name="그룹 341" transform="translate(-486 -2895)">
    <g id="그룹_310" data-name="그룹 310" transform="translate(211.174 2398.027)">
      <g id="그룹_304" data-name="그룹 304" transform="translate(835.673 497.483)">
        <path id="패스_292" data-name="패스 292" d="M1240.854,525.77h-16.433V498.527h16.433v2.012h-14.421v23.22h14.421Z" transform="translate(-1224.421 -498.527)" fill="#424242"/>
      </g>
      <g id="그룹_305" data-name="그룹 305" transform="translate(836.883 509.657)">
        <rect id="사각형_84" data-name="사각형 84" width="13.256" height="2.012" transform="translate(0)" fill="#424242"/>
      </g>
      <path id="패스_293" data-name="패스 293" d="M717.906,500.675h5.982l8.066,26.711h-5.508Z" transform="translate(-48.594 -2.486)" fill="#424242"/>
      <path id="패스_294" data-name="패스 294" d="M765.99,500.675h-5.982l-4.5,14.9,2.777,9.2Z" transform="translate(-73.847 -2.486)" fill="#424242"/>
      <g id="그룹_306" data-name="그룹 306" transform="translate(701.972 497.483)">
        <path id="패스_295" data-name="패스 295" d="M833.78,525.77H817.347V498.527H833.78v2.012H819.358v23.22H833.78Z" transform="translate(-817.347 -498.527)" fill="#424242"/>
      </g>
      <g id="그룹_307" data-name="그룹 307" transform="translate(703.183 509.657)">
        <rect id="사각형_85" data-name="사각형 85" width="13.256" height="2.012" fill="#424242"/>
      </g>
      <path id="패스_296" data-name="패스 296" d="M1002.751,525.237c-8.75,0-9.1-8.544-9.106-8.63V505.527a7.924,7.924,0,0,1,2.237-5.852c2.707-2.694,6.868-2.7,7.036-2.7a8.728,8.728,0,0,1,6.457,2.386,9.42,9.42,0,0,1,2.482,6.176l-2.012-.016,1.006.008-1.006,0a7.467,7.467,0,0,0-1.911-4.759,6.815,6.815,0,0,0-5.022-1.779h0a10.1,10.1,0,0,0-3.768.862,5.775,5.775,0,0,0-3.489,5.681v11.049c.009.24.315,6.648,7.1,6.648,2.858,0,4.911-.964,6.1-2.866a6.849,6.849,0,0,0,.991-2.992v-4.384h-7.218v-2.012h8.224l1.006,1.006V517.4C1011.854,517.515,1011.5,525.237,1002.751,525.237Z" transform="translate(-233.769 0)" fill="#424242"/>
      <rect id="사각형_86" data-name="사각형 86" width="2.012" height="27.751" transform="translate(790.015 497.229)" fill="#424242"/>
      <path id="패스_297" data-name="패스 297" d="M661.427,527.386h-5.414v-4.138H645.546V518.47l10.464-17.74h5.336l-9.664,17.44h4.331L656,500.675h5.425v17.494h2.107v5.079h-2.107Z" transform="translate(0 -2.486)" fill="#424242"/>
      <g id="그룹_308" data-name="그룹 308" transform="translate(728.725 497.388)">
        <path id="패스_298" data-name="패스 298" d="M911.411,514.511h0l-10.768-16.274H898.8V525.67h2.012V502.135l15.573,23.535h1.845v-.824Z" transform="translate(-898.799 -498.237)" fill="#424242"/>
        <path id="패스_299" data-name="패스 299" d="M953.841,520.965V498.237h-2.012v19.678Z" transform="translate(-934.412 -498.237)" fill="#424242"/>
      </g>
      <g id="그룹_309" data-name="그룹 309" transform="translate(804.426 497.388)">
        <path id="패스_300" data-name="패스 300" d="M1184.327,520.985V498.237h-2.011v19.7Z" transform="translate(-1164.898 -498.237)" fill="#424242"/>
        <path id="패스_301" data-name="패스 301" d="M1141.883,514.511l.01-.007-10.764-16.267h-1.845V525.67h2.012V502.135l15.573,23.535h1.845v-.8Z" transform="translate(-1129.285 -498.237)" fill="#424242"/>
      </g>
    </g>
    <g id="그룹_334" data-name="그룹 334" transform="translate(4149.291 1947.538) rotate(90)" opacity="0.3">
      <line id="선_4" data-name="선 4" y1="260.791" x2="34.962" transform="translate(1011.5 2928.5)" fill="none" stroke="#000" stroke-width="1"/>
      <line id="선_5" data-name="선 5" x2="35" transform="translate(1011.462 3189.291)" fill="none" stroke="#000" stroke-width="1"/>
      <line id="선_6" data-name="선 6" x2="34.962" y2="260.791" transform="translate(1011.5 3189.291)" fill="none" stroke="#000" stroke-width="1"/>
    </g>
    <g id="그룹_335" data-name="그룹 335" transform="translate(-168 -10)">
      <g transform="matrix(1, 0, 0, 1, 654, 2905)" filter="url(#사각형_97)">
        <rect id="사각형_97-4" data-name="사각형 97" width="297" height="84" rx="18" transform="translate(9 99)" fill="#8443ff"/>
      </g>
      <text id="시나리오_기반의_메타버스_구축" data-name="시나리오 기반의 메타버스 구축" transform="translate(711 3050)" fill="#fff" font-size="16" font-family="SpoqaHanSansNeo-Bold, Spoqa Han Sans Neo" font-weight="700"><tspan x="0" y="0">시나리오 기반의 메타버스 구축</tspan></text>
    </g>
    <g id="그룹_336" data-name="그룹 336" transform="translate(149 -10)">
      <g transform="matrix(1, 0, 0, 1, 337, 2905)" filter="url(#사각형_97-2)">
        <rect id="사각형_97-5" data-name="사각형 97" width="297" height="84" rx="18" transform="translate(326 99)" fill="#8443ff"/>
      </g>
      <text id="누구나_쉽게_메타버스를_구축할_수_있는_저작도구" data-name="누구나 쉽게 메타버스를
구축할 수 있는 저작도구" transform="translate(812 3041)" fill="#fff" font-size="16" font-family="SpoqaHanSansNeo-Bold, Spoqa Han Sans Neo" font-weight="700"><tspan x="-77.232" y="0">누구나 쉽게 메타버스를</tspan><tspan x="-79.048" y="21">구축할 수 있는 저작도구</tspan></text>
    </g>
    <g id="그룹_337" data-name="그룹 337" transform="translate(466 -10)">
      <g transform="matrix(1, 0, 0, 1, 20, 2905)" filter="url(#사각형_97-3)">
        <rect id="사각형_97-6" data-name="사각형 97" width="297" height="84" rx="18" transform="translate(643 99)" fill="#8443ff"/>
      </g>
      <text id="PC_웹_모바일_웹_VR_원하는_기기로_메타버스_제공" data-name="PC 웹, 모바일 웹, VR
원하는 기기로 메타버스 제공" transform="translate(812 3041)" fill="#fff" font-size="16" font-family="SpoqaHanSansNeo-Bold, Spoqa Han Sans Neo" font-weight="700"><tspan x="-68.976" y="0">PC </tspan><tspan y="0">웹, 모바일 웹, </tspan><tspan y="0">VR</tspan><tspan x="-93.768" y="21">원하는 기기로 메타버스 제공</tspan></text>
    </g>
  </g>
</svg>
