<svg xmlns="http://www.w3.org/2000/svg" width="64" height="64" viewBox="0 0 64 64">
  <g id="그룹_344" data-name="그룹 344" transform="translate(-730 -2679)">
    <rect id="사각형_31" data-name="사각형 31" width="64" height="64" rx="32" transform="translate(730 2679)" opacity="0.3"/>
    <g id="_0b3ctW.tif" data-name="0b3ctW.tif" transform="translate(-352.833 3029.387)">
      <g id="그룹_42" data-name="그룹 42">
        <path id="패스_32" data-name="패스 32" d="M1114.394-332.387h1.013c.042.016.084.035.127.049a10,10,0,0,1,1.634.564q4.141,2.265,8.244,4.6a4.568,4.568,0,0,1,2.439,4.179c.012,1.538,0,3.076,0,4.614a1.609,1.609,0,0,1-.041.417,1.116,1.116,0,0,1-1.687.655c-1.317-.735-2.628-1.481-3.941-2.222-.087-.049-.176-.091-.3-.155v.313c0,1.219.006,2.438-.006,3.658a.427.427,0,0,0,.252.437q2.373,1.341,4.735,2.7a1.125,1.125,0,0,1,.472,1.629,4.723,4.723,0,0,1-1.91,1.97q-3.487,2-6.973,4a8.774,8.774,0,0,1-3.216,1.406h-.957a6.246,6.246,0,0,1-2.122-.769c-2.622-1.547-5.258-3.071-7.884-4.611a4.633,4.633,0,0,1-2.439-4.239q-.006-4.866,0-9.733a4.63,4.63,0,0,1,2.529-4.3c1.9-1.062,3.784-2.141,5.7-3.163C1111.469-331.128,1112.751-332.152,1114.394-332.387Zm-3.352,17.575c1.281.749,2.516,1.476,3.759,2.19a.394.394,0,0,0,.321-.018c.447-.237.879-.5,1.325-.74a1.112,1.112,0,0,1,1.512.424,1.118,1.118,0,0,1-.393,1.522c-.113.073-.229.142-.367.227,1.234.722,2.428,1.425,3.631,2.115a.4.4,0,0,0,.322-.033c1.045-.589,2.084-1.187,3.124-1.785.143-.083.279-.179.446-.286-.115-.068-.193-.117-.274-.163q-4.977-2.847-9.956-5.691a1.311,1.311,0,0,1-.723-1.258c.01-3.733.005-7.466.005-11.2v-.355c-.071.033-.1.046-.135.063-1.121.623-2.245,1.243-3.361,1.878a.414.414,0,0,0-.157.308c-.011,1.238-.008,2.476-.007,3.714,0,.07.006.139.011.241l.4-.222a1.128,1.128,0,0,1,1.584.4,1.12,1.12,0,0,1-.451,1.549c-.442.265-.888.525-1.34.772a.342.342,0,0,0-.2.35c.008,1.219,0,2.439.005,3.658,0,.071.006.142.011.248l.315-.176a1.123,1.123,0,0,1,1.542.4,1.116,1.116,0,0,1-.378,1.526C1111.434-315.046,1111.257-314.944,1111.042-314.812Zm-6.1,3.594c.111.083.185.15.27.2,1.114.654,2.227,1.309,3.348,1.951a.387.387,0,0,0,.32-.027c1.2-.671,2.4-1.353,3.593-2.033.058-.034.111-.079.183-.131-1.252-.733-2.478-1.455-3.712-2.163a.393.393,0,0,0-.322.037c-.907.525-1.808,1.061-2.711,1.594Zm6.018,3.566c.918.533,1.8,1.074,2.717,1.568a2.168,2.168,0,0,0,2.109.022c.977-.512,1.924-1.082,2.9-1.637a1.134,1.134,0,0,0-.124-.1c-1.163-.682-2.325-1.366-3.494-2.038a.386.386,0,0,0-.318.015c-1.21.676-2.414,1.361-3.618,2.045A2,2,0,0,0,1110.955-307.652Zm-6.859-12.535a1.34,1.34,0,0,0,.134-.056c1.158-.669,2.319-1.336,3.47-2.017a.415.415,0,0,0,.154-.309c.011-1.255.007-2.51.006-3.765,0-.069-.011-.137-.02-.249-.939.532-1.857,1.017-2.737,1.564a2.072,2.072,0,0,0-.995,1.711C1104.062-322.281,1104.1-321.25,1104.1-320.187Zm-.009,6.823a.789.789,0,0,0,.126-.047c1.171-.689,2.343-1.375,3.507-2.075a.4.4,0,0,0,.135-.3c.009-1.237.006-2.475.005-3.713,0-.068-.014-.136-.024-.229-1.229.71-2.43,1.4-3.624,2.1a.365.365,0,0,0-.119.274c-.01.769-.006,1.538-.006,2.307Zm21.5-6.838c.007-.121.015-.2.015-.282q0-1.251,0-2.5a2.416,2.416,0,0,0-1.3-2.234c-.731-.417-1.469-.824-2.2-1.233a1.8,1.8,0,0,0-.209-.084c0,1.386-.005,2.735.008,4.084a.417.417,0,0,0,.2.281c.957.552,1.92,1.092,2.883,1.634C1125.168-320.43,1125.362-320.325,1125.585-320.2Zm-5.954-3.354c0-1.414,0-2.773-.009-4.131a.4.4,0,0,0-.2-.255c-1.05-.6-2.1-1.186-3.16-1.776-.067-.037-.14-.064-.235-.108,0,1.392,0,2.741.006,4.091a.329.329,0,0,0,.153.225c.384.232.779.449,1.17.67Zm0,6.844c0-1.4,0-2.743-.009-4.084a.418.418,0,0,0-.2-.283c-1.055-.608-2.118-1.2-3.179-1.8-.061-.034-.129-.058-.214-.1,0,1.37,0,2.71.007,4.051a.364.364,0,0,0,.169.246c.507.3,1.023.59,1.535.883Z" fill="#c09aff"/>
      </g>
    </g>
  </g>
</svg>
