<svg xmlns="http://www.w3.org/2000/svg" width="64" height="64" viewBox="0 0 64 64">
  <g id="그룹_345" data-name="그룹 345" transform="translate(-1158 -2679)">
    <rect id="사각형_31" data-name="사각형 31" width="64" height="64" rx="32" transform="translate(1158 2679)" opacity="0.3"/>
    <g id="YKMgr5.tif" transform="translate(-10.36 3029.965)">
      <g id="그룹_43" data-name="그룹 43">
        <path id="패스_33" data-name="패스 33" d="M1199.463-303.966a6.618,6.618,0,0,1-1.014-.251c-.655-.274-1.3-.58-1.929-.906q-3.612-1.865-7.212-3.753a5.13,5.13,0,0,1-2.932-4.8q-.031-5.3,0-10.6a5.157,5.157,0,0,1,3-4.848q4.08-2.106,8.165-4.2a5.1,5.1,0,0,1,4.861-.042q4.2,2.119,8.383,4.288a5.116,5.116,0,0,1,2.933,4.712c.034,1.619.014,3.24.005,4.861a1.151,1.151,0,0,1-.978,1.2,1.147,1.147,0,0,1-1.3-.8,1.941,1.941,0,0,1-.061-.549c0-1.494,0-2.987,0-4.481,0-.163-.016-.326-.026-.527l-2.595,1.292c-.62.309-1.237.622-1.859.926a1.182,1.182,0,0,1-1.672-.5,1.173,1.173,0,0,1,.636-1.6q1.986-.995,3.976-1.984c.1-.052.206-.108.353-.185-.162-.1-.291-.192-.43-.263q-4.228-2.168-8.461-4.328a2.756,2.756,0,0,0-2.618.017q-4.176,2.142-8.344,4.3c-.144.074-.281.164-.458.268l2.653,1.326c.558.278,1.118.554,1.675.836a1.18,1.18,0,0,1,.636,1.645,1.186,1.186,0,0,1-1.687.451l-4.133-2.063c-.086-.043-.173-.081-.29-.135-.009.185-.024.339-.024.493,0,3.436.009,6.872-.005,10.308a3.058,3.058,0,0,0,1.789,2.968c2.706,1.388,5.4,2.8,8.1,4.2.1.052.208.1.367.168v-.349c0-.752-.007-1.5.01-2.255a1.088,1.088,0,0,1,.742-1.057,1.124,1.124,0,0,1,1.224.234,1.167,1.167,0,0,1,.37.921c0,.673,0,1.347,0,2.021v.363c.117-.051.2-.079.268-.117q4.066-2.1,8.131-4.2a2.932,2.932,0,0,0,1.678-2.62,1.154,1.154,0,0,1,1.4-1.174,1.144,1.144,0,0,1,.932,1.181,5.038,5.038,0,0,1-2.676,4.539c-1.944,1.075-3.94,2.055-5.914,3.077-.831.43-1.668.849-2.491,1.293a7.113,7.113,0,0,1-2.064.694Z" fill="#c09aff"/>
        <path id="패스_34" data-name="패스 34" d="M1203.073-318.359a5.637,5.637,0,0,1,2.146,2.324,3.784,3.784,0,0,1,.522,2.01,1.9,1.9,0,0,1-1.825,1.735c-2.556.017-5.112.022-7.668,0a1.926,1.926,0,0,1-1.8-2.393,5.67,5.67,0,0,1,2.272-3.433c.11-.08.223-.155.361-.25a3.7,3.7,0,0,1-.514-3.309,3.578,3.578,0,0,1,1.453-1.923,3.672,3.672,0,0,1,4.541.336A3.734,3.734,0,0,1,1203.073-318.359Zm.178,3.72a3.352,3.352,0,0,0-3.372-2.208,3.3,3.3,0,0,0-2.965,2.208Zm-1.834-5.91a1.34,1.34,0,0,0-1.34-1.338,1.346,1.346,0,0,0-1.343,1.367,1.344,1.344,0,0,0,1.356,1.324A1.344,1.344,0,0,0,1201.417-320.549Z" fill="#c09aff"/>
      </g>
    </g>
  </g>
</svg>
